<svg width="32" height="32" viewBox="0 0 32 32" fill="none" xmlns="http://www.w3.org/2000/svg">
<path d="M16.0694 10.0907C16.0694 12.8387 14.1336 14.7916 11.7457 14.7916C9.35773 14.7916 7.42192 12.8387 7.42192 10.0907C7.42192 7.34272 9.35773 5.70065 11.7457 5.70065C14.1336 5.70065 16.0694 7.34272 16.0694 10.0907Z" stroke="black" stroke-width="2" stroke-linejoin="round"/>
<path d="M23.0141 25.8821C23.0141 28.7086 19.6786 31 12.007 31C4.33547 31 1 28.7086 1 25.8821C1 23.0555 5.92802 20.7641 12.007 20.7641C18.0861 20.7641 23.0141 23.0555 23.0141 25.8821Z" stroke="black" stroke-width="2" stroke-linejoin="round"/>
<path d="M25.7658 1L27.3251 4.32758L31 4.76901L28.2887 7.267L29.0007 10.8674L25.7658 9.08367L22.531 10.8674L23.243 7.267L20.5317 4.76901L24.2066 4.32758L25.7658 1Z" stroke="black" stroke-width="2" stroke-linejoin="round"/>
</svg>
