<svg width="34" height="33" viewBox="0 0 34 33" fill="none" xmlns="http://www.w3.org/2000/svg">
<path d="M32.2929 32.7071C32.6834 33.0976 33.3166 33.0976 33.7071 32.7071C34.0976 32.3166 34.0976 31.6834 33.7071 31.2929L32.2929 32.7071ZM28.5034 23.2517C28.5034 25.5998 26.5998 27.5034 24.2517 27.5034V29.5034C27.7044 29.5034 30.5034 26.7044 30.5034 23.2517H28.5034ZM24.2517 27.5034C21.9035 27.5034 20 25.5998 20 23.2517H18C18 26.7044 20.799 29.5034 24.2517 29.5034V27.5034ZM20 23.2517C20 20.9035 21.9035 19 24.2517 19V17C20.799 17 18 19.799 18 23.2517H20ZM24.2517 19C26.5998 19 28.5034 20.9035 28.5034 23.2517H30.5034C30.5034 19.799 27.7044 17 24.2517 17V19ZM27.2318 27.7216L29.5583 29.9723L30.9489 28.5349L28.6224 26.2842L27.2318 27.7216ZM27.269 27.6832L32.2929 32.7071L33.7071 31.2929L28.6832 26.269L27.269 27.6832Z" fill="black"/>
<rect x="0.5" y="0.5" width="13" height="13" rx="2.5" stroke="black"/>
<rect x="19.5" y="0.5" width="13" height="13" rx="2.5" stroke="black"/>
<rect x="0.5" y="18.5" width="13" height="13" rx="2.5" stroke="black"/>
</svg>
