<svg width="32" height="32" viewBox="0 0 32 32" fill="none" xmlns="http://www.w3.org/2000/svg">
<path d="M5.6875 27.25C6.40808 26.443 9.78289 22.7292 10.7719 22.7292H21.2288C22.6619 22.7292 25.5875 25.8077 26.3125 26.8928M31 16C31 24.2843 24.2843 31 16 31C7.71573 31 1 24.2843 1 16C1 7.71573 7.71573 1 16 1C24.2843 1 31 7.71573 31 16ZM21.3732 10.8874C21.3732 8.0257 18.9574 5.6875 16.0005 5.6875C13.0436 5.6875 10.6277 8.0257 10.6277 10.8874C10.6277 13.7492 13.0436 16.0874 16.0005 16.0874C18.9573 16.0874 21.3732 13.7492 21.3732 10.8874Z" stroke="black" stroke-width="2"/>
</svg>
