<svg width="20" height="19" viewBox="0 0 20 19" fill="none" xmlns="http://www.w3.org/2000/svg">
<path d="M12.6471 5.2V3.1C12.6471 2.54305 12.424 2.0089 12.0268 1.61508C11.6297 1.22125 11.091 1 10.5294 1H3.11765C2.55601 1 2.01738 1.22125 1.62024 1.61508C1.22311 2.0089 1 2.54305 1 3.1V15.7C1 16.257 1.22311 16.7911 1.62024 17.1849C2.01738 17.5787 2.55601 17.8 3.11765 17.8H10.5294C11.091 17.8 11.6297 17.5787 12.0268 17.1849C12.424 16.7911 12.6471 16.257 12.6471 15.7V13.6M6.29412 9.4H19M19 9.4L15.8235 6.25M19 9.4L15.8235 12.55" stroke="black" stroke-width="2" stroke-linecap="round" stroke-linejoin="round"/>
</svg>
