<svg width="30" height="30" viewBox="0 0 30 30" fill="none" xmlns="http://www.w3.org/2000/svg">
<path d="M20.3636 6.6827C20.3636 9.55857 17.9352 12.1247 15 12.1247C12.0648 12.1247 9.63636 9.55857 9.63636 6.6827C9.63636 3.759 12.1102 1 15 1C17.8898 1 20.3636 3.759 20.3636 6.6827ZM29 22.9629C29 24.4366 28.1666 25.9011 25.9582 27.0521C23.7168 28.2204 20.1496 29 15 29C9.85036 29 6.28318 28.2204 4.04176 27.0521C1.83339 25.9011 1 24.4366 1 22.9629C1 21.6362 2.18459 20.1278 4.81812 18.8923C7.37221 17.6941 10.971 16.9259 15 16.9259C19.029 16.9259 22.6278 17.6941 25.1819 18.8923C27.8154 20.1278 29 21.6362 29 22.9629Z" stroke="black" stroke-width="2"/>
</svg>
