<svg width="22" height="22" viewBox="0 0 22 22" fill="none" xmlns="http://www.w3.org/2000/svg">
<path d="M3.1999 18.8003C3.54426 18.4146 5.85775 16.5977 7.00766 15.702C7.42646 15.3757 7.94017 15.2003 8.47104 15.2003C9.7547 15.2003 12.2283 15.2003 13.5181 15.2003C14.0552 15.2003 14.574 15.3832 15.0065 15.7017C16.4912 16.7956 17.8832 17.6106 19.3999 18.8003M4.9999 20.6H16.9999C18.9881 20.6 20.5999 18.9882 20.5999 17V5.00002C20.5999 3.0118 18.9881 1.40002 16.9999 1.40002H4.9999C3.01168 1.40002 1.3999 3.0118 1.3999 5.00002V17C1.3999 18.9882 3.01168 20.6 4.9999 20.6ZM14.4385 8.27206C14.4385 6.44055 12.8923 4.94411 10.9999 4.94411C9.10753 4.94411 7.56135 6.44055 7.56135 8.27206C7.56135 10.1036 9.10753 11.6 10.9999 11.6C12.8923 11.6 14.4385 10.1036 14.4385 8.27206Z" stroke="black" stroke-width="2"/>
</svg>
