<svg width="23" height="23" viewBox="0 0 23 23" fill="none" xmlns="http://www.w3.org/2000/svg">
<path d="M21.1929 22.6071C21.5834 22.9976 22.2166 22.9976 22.6071 22.6071C22.9976 22.2166 22.9976 21.5834 22.6071 21.1929L21.1929 22.6071ZM15.68 8.84C15.68 12.6176 12.6176 15.68 8.84 15.68V17.68C13.7222 17.68 17.68 13.7222 17.68 8.84H15.68ZM8.84 15.68C5.06237 15.68 2 12.6176 2 8.84H0C0 13.7222 3.9578 17.68 8.84 17.68V15.68ZM2 8.84C2 5.06237 5.06237 2 8.84 2V0C3.9578 0 0 3.9578 0 8.84H2ZM8.84 2C12.6176 2 15.68 5.06237 15.68 8.84H17.68C17.68 3.9578 13.7222 0 8.84 0V2ZM13.6316 15.1587L17.1047 18.5187L18.4953 17.0813L15.0222 13.7213L13.6316 15.1587ZM13.6929 15.1071L21.1929 22.6071L22.6071 21.1929L15.1071 13.6929L13.6929 15.1071Z" fill="black"/>
</svg>
