<svg width="23" height="22" viewBox="0 0 23 22" fill="none" xmlns="http://www.w3.org/2000/svg">
<path d="M10.56 1.31391C10.7666 0.895364 11.3634 0.895364 11.57 1.31391L14.244 6.73203C14.326 6.89824 14.4846 7.01344 14.668 7.04009L20.6473 7.90893C21.1091 7.97604 21.2936 8.54367 20.9594 8.86946L16.6327 13.0869C16.5 13.2163 16.4394 13.4026 16.4708 13.5853L17.4921 19.5404C17.571 20.0004 17.0882 20.3513 16.6751 20.1341L11.3271 17.3224C11.163 17.2362 10.967 17.2362 10.803 17.3224L5.45496 20.1341C5.04183 20.3513 4.55898 20.0004 4.63788 19.5404L5.65926 13.5853C5.69059 13.4026 5.63003 13.2163 5.4973 13.0869L1.17067 8.86946C0.836446 8.54367 1.02088 7.97604 1.48277 7.90893L7.46202 7.04009C7.64544 7.01344 7.804 6.89824 7.88603 6.73203L10.56 1.31391Z" stroke="black" stroke-width="2" stroke-linejoin="round"/>
</svg>
