<svg width="29" height="25" viewBox="0 0 29 25" fill="none" xmlns="http://www.w3.org/2000/svg">
<path d="M16.803 5.56892C16.803 7.87801 14.8494 9.93728 12.5 9.93728C10.1506 9.93728 8.19697 7.87801 8.19697 5.56892C8.19697 3.21199 10.1959 1 12.5 1C14.8041 1 16.803 3.21199 16.803 5.56892ZM24 19.1358C24 20.2856 23.356 21.4568 21.5548 22.3956C19.7206 23.3517 16.7784 24 12.5 24C8.22157 24 5.27939 23.3517 3.44517 22.3956C1.64399 21.4568 1 20.2856 1 19.1358C1 18.1329 1.90477 16.9177 4.08589 15.8945C6.18757 14.9085 9.16132 14.2716 12.5 14.2716C15.8387 14.2716 18.8124 14.9085 20.9141 15.8945C23.0952 16.9177 24 18.1329 24 19.1358Z" stroke="black" stroke-width="2"/>
<path d="M22 3L25.7256 6.33459" stroke="black"/>
<path d="M25 6.50989L28.561 3.00001" stroke="black"/>
</svg>
