<svg width="32" height="26" viewBox="0 0 32 26" fill="none" xmlns="http://www.w3.org/2000/svg">
<path d="M26.2571 21.7638C25.7125 21.8553 25.3451 22.371 25.4366 22.9157C25.5281 23.4603 26.0438 23.8277 26.5885 23.7362L26.2571 21.7638ZM24.3587 12.6373C23.8064 12.6373 23.3587 13.085 23.3587 13.6373C23.3587 14.1896 23.8064 14.6373 24.3587 14.6373V12.6373ZM22.8206 9.47108C24.9124 9.47108 26.6076 7.77498 26.6076 5.68332H24.6076C24.6076 6.67094 23.8073 7.47108 22.8206 7.47108V9.47108ZM19.0336 5.68332C19.0336 7.77498 20.7289 9.47108 22.8206 9.47108V7.47108C21.834 7.47108 21.0336 6.67094 21.0336 5.68332H19.0336ZM22.8206 1.89555C20.7289 1.89555 19.0336 3.59166 19.0336 5.68332H21.0336C21.0336 4.6957 21.834 3.89555 22.8206 3.89555V1.89555ZM26.6076 5.68332C26.6076 3.59166 24.9124 1.89555 22.8206 1.89555V3.89555C23.8073 3.89555 24.6076 4.6957 24.6076 5.68332H26.6076ZM30 18.2735C30 19.114 29.7293 19.8448 29.176 20.4253C28.6138 21.0151 27.6878 21.5235 26.2571 21.7638L26.5885 23.7362C28.327 23.4441 29.6897 22.7851 30.6237 21.8052C31.5667 20.8159 32 19.5746 32 18.2735H30ZM24.3587 14.6373C26.0132 14.6373 27.468 15.1071 28.4824 15.8152C29.5001 16.5256 30 17.4103 30 18.2735H32C32 16.5761 31.0132 15.1428 29.6272 14.1752C28.2379 13.2053 26.3721 12.6373 24.3587 12.6373V14.6373ZM13.7709 5.38225C13.7709 7.43179 12.3846 8.71781 10.8197 8.71781V10.7178C13.6192 10.7178 15.7709 8.40165 15.7709 5.38225H13.7709ZM10.8197 8.71781C9.25486 8.71781 7.86854 7.43179 7.86854 5.38225H5.86854C5.86854 8.40165 8.02023 10.7178 10.8197 10.7178V8.71781ZM7.86854 5.38225C7.86854 4.35825 8.21999 3.61348 8.72303 3.12423C9.23223 2.62898 9.96105 2.33333 10.8197 2.33333V0.333328C9.49621 0.333328 8.24944 0.794902 7.3286 1.6905C6.40159 2.5921 5.86854 3.87179 5.86854 5.38225H7.86854ZM10.8197 2.33333C11.6784 2.33333 12.4072 2.62898 12.9164 3.12423C13.4194 3.61348 13.7709 4.35825 13.7709 5.38225H15.7709C15.7709 3.87179 15.2378 2.5921 14.3108 1.6905C13.39 0.794902 12.1432 0.333328 10.8197 0.333328V2.33333ZM20.1171 19.9464C20.1171 20.7805 19.6579 21.6657 18.2545 22.3974C16.8179 23.1464 14.4861 23.6667 11.0586 23.6667L11.0586 25.6667C14.6415 25.6667 17.339 25.1303 19.1791 24.1709C21.0523 23.1942 22.1171 21.7193 22.1171 19.9464H20.1171ZM11.0586 23.6667C7.63097 23.6667 5.29918 23.1464 3.86265 22.3974C2.45921 21.6657 2 20.7805 2 19.9464H0C0 21.7193 1.06482 23.1942 2.93802 24.1709C4.77814 25.1303 7.47564 25.6667 11.0586 25.6667L11.0586 23.6667ZM2 19.9464C2 19.2593 2.63172 18.3302 4.37091 17.514C6.03075 16.7351 8.3941 16.2262 11.0586 16.2262V14.2262C8.16782 14.2262 5.5019 14.774 3.52126 15.7035C1.61996 16.5957 0 18.0266 0 19.9464H2ZM11.0586 16.2262C13.723 16.2262 16.0864 16.7351 17.7462 17.514C19.4854 18.3302 20.1171 19.2593 20.1171 19.9464H22.1171C22.1171 18.0266 20.4971 16.5957 18.5959 15.7035C16.6152 14.774 13.9493 14.2262 11.0586 14.2262V16.2262Z" fill="black"/>
</svg>
