<svg width="20" height="20" viewBox="0 0 20 20" fill="none" xmlns="http://www.w3.org/2000/svg">
<circle cx="10" cy="10" r="10" fill="#FFDAB9"/>
<path d="M13.4636 7.34998V10.356H16.9976V11.304H13.4636V15H12.2996V6.40198H17.5976V7.34998H13.4636Z" fill="black"/>
<path d="M10.518 10.866V14.166C10.086 14.478 9.624 14.712 9.132 14.868C8.644 15.02 8.108 15.096 7.524 15.096C6.832 15.096 6.208 14.99 5.652 14.778C5.096 14.562 4.62 14.262 4.224 13.878C3.832 13.49 3.53 13.026 3.318 12.486C3.106 11.946 3 11.352 3 10.704C3 10.048 3.102 9.44997 3.306 8.90997C3.514 8.36997 3.808 7.90797 4.188 7.52397C4.568 7.13597 5.03 6.83597 5.574 6.62397C6.118 6.41197 6.726 6.30597 7.398 6.30597C7.738 6.30597 8.054 6.33197 8.346 6.38397C8.638 6.43197 8.908 6.50397 9.156 6.59997C9.404 6.69197 9.634 6.80597 9.846 6.94197C10.058 7.07397 10.256 7.22397 10.44 7.39197L10.11 7.91997C10.058 7.99997 9.99 8.05197 9.906 8.07597C9.826 8.09597 9.736 8.07597 9.636 8.01597C9.54 7.95997 9.43 7.89197 9.306 7.81197C9.182 7.73197 9.03 7.65597 8.85 7.58397C8.674 7.50797 8.464 7.44397 8.22 7.39197C7.98 7.33997 7.694 7.31397 7.362 7.31397C6.878 7.31397 6.44 7.39397 6.048 7.55397C5.656 7.70997 5.322 7.93597 5.046 8.23197C4.77 8.52397 4.558 8.87997 4.41 9.29997C4.262 9.71597 4.188 10.184 4.188 10.704C4.188 11.244 4.264 11.728 4.416 12.156C4.572 12.58 4.792 12.942 5.076 13.242C5.364 13.538 5.712 13.764 6.12 13.92C6.528 14.076 6.986 14.154 7.494 14.154C7.894 14.154 8.248 14.11 8.556 14.022C8.868 13.93 9.172 13.804 9.468 13.644V11.754H8.13C8.054 11.754 7.992 11.732 7.944 11.688C7.9 11.644 7.878 11.59 7.878 11.526V10.866H10.518Z" fill="black"/>
</svg>
