<svg width="20" height="20" viewBox="0 0 20 20" fill="none" xmlns="http://www.w3.org/2000/svg">
<circle cx="10" cy="10" r="10" fill="#FD8686"/>
<path d="M8.158 10.17H8.596C8.748 10.17 8.87 10.152 8.962 10.116C9.054 10.076 9.138 10.01 9.214 9.91798L12.076 6.67798C12.156 6.57398 12.24 6.50198 12.328 6.46198C12.416 6.42198 12.524 6.40198 12.652 6.40198H13.636L10.36 10.104C10.28 10.2 10.202 10.28 10.126 10.344C10.054 10.404 9.976 10.454 9.892 10.494C10 10.53 10.098 10.584 10.186 10.656C10.274 10.724 10.36 10.814 10.444 10.926L13.864 15H12.856C12.78 15 12.714 14.996 12.658 14.988C12.606 14.976 12.56 14.96 12.52 14.94C12.48 14.916 12.444 14.89 12.412 14.862C12.384 14.83 12.356 14.794 12.328 14.754L9.364 11.34C9.284 11.24 9.198 11.17 9.106 11.13C9.014 11.086 8.874 11.064 8.686 11.064H8.158V15H7V6.40198H8.158V10.17Z" fill="black"/>
</svg>
