<svg width="20" height="20" viewBox="0 0 20 20" fill="none" xmlns="http://www.w3.org/2000/svg">
<circle cx="10" cy="10" r="10" fill="#ADD8E6"/>
<path d="M15.8016 13.224C15.8656 13.224 15.9216 13.25 15.9696 13.302L16.4316 13.8C16.0796 14.208 15.6516 14.526 15.1476 14.754C14.6476 14.982 14.0416 15.096 13.3296 15.096C12.7136 15.096 12.1536 14.99 11.6496 14.778C11.1456 14.562 10.7156 14.262 10.3596 13.878C10.0036 13.49 9.72761 13.026 9.53161 12.486C9.33561 11.946 9.23761 11.352 9.23761 10.704C9.23761 10.056 9.33961 9.46197 9.54361 8.92197C9.74761 8.38197 10.0336 7.91797 10.4016 7.52997C10.7736 7.14197 11.2176 6.84197 11.7336 6.62997C12.2496 6.41397 12.8196 6.30597 13.4436 6.30597C14.0556 6.30597 14.5956 6.40397 15.0636 6.59997C15.5316 6.79597 15.9436 7.06197 16.2996 7.39797L15.9156 7.93197C15.8916 7.97197 15.8596 8.00597 15.8196 8.03397C15.7836 8.05797 15.7336 8.06997 15.6696 8.06997C15.5976 8.06997 15.5096 8.03197 15.4056 7.95597C15.3016 7.87597 15.1656 7.78797 14.9976 7.69197C14.8296 7.59597 14.6196 7.50997 14.3676 7.43397C14.1156 7.35397 13.8056 7.31397 13.4376 7.31397C12.9936 7.31397 12.5876 7.39197 12.2196 7.54797C11.8516 7.69997 11.5336 7.92197 11.2656 8.21397C11.0016 8.50597 10.7956 8.86197 10.6476 9.28197C10.4996 9.70197 10.4256 10.176 10.4256 10.704C10.4256 11.24 10.5016 11.718 10.6536 12.138C10.8096 12.558 11.0196 12.914 11.2836 13.206C11.5516 13.494 11.8656 13.714 12.2256 13.866C12.5896 14.018 12.9816 14.094 13.4016 14.094C13.6576 14.094 13.8876 14.08 14.0916 14.052C14.2996 14.02 14.4896 13.972 14.6616 13.908C14.8376 13.844 14.9996 13.764 15.1476 13.668C15.2996 13.568 15.4496 13.45 15.5976 13.314C15.6656 13.254 15.7336 13.224 15.8016 13.224Z" fill="black"/>
<path d="M8.878 14.022V15H4V6.40198H5.158V14.022H8.878Z" fill="black"/>
</svg>
