<svg width="20" height="20" viewBox="0 0 20 20" fill="none" xmlns="http://www.w3.org/2000/svg">
<circle cx="10" cy="10" r="10" fill="#DCDCFB"/>
<path d="M12.3817 7.04401V10.05H15.9157V10.998H12.3817V14.694H11.2177V6.09601H16.5157V7.04401H12.3817Z" fill="black"/>
<path d="M9.1 7.44C9.064 7.5 9.024 7.546 8.98 7.578C8.94 7.606 8.89 7.62 8.83 7.62C8.762 7.62 8.682 7.586 8.59 7.518C8.498 7.45 8.382 7.376 8.242 7.296C8.106 7.212 7.94 7.136 7.744 7.068C7.552 7 7.318 6.966 7.042 6.966C6.782 6.966 6.552 7.002 6.352 7.074C6.156 7.142 5.99 7.236 5.854 7.356C5.722 7.476 5.622 7.618 5.554 7.782C5.486 7.942 5.452 8.116 5.452 8.304C5.452 8.544 5.51 8.744 5.626 8.904C5.746 9.06 5.902 9.194 6.094 9.306C6.29 9.418 6.51 9.516 6.754 9.6C7.002 9.68 7.254 9.764 7.51 9.852C7.77 9.94 8.022 10.04 8.266 10.152C8.514 10.26 8.734 10.398 8.926 10.566C9.122 10.734 9.278 10.94 9.394 11.184C9.514 11.428 9.574 11.728 9.574 12.084C9.574 12.46 9.51 12.814 9.382 13.146C9.254 13.474 9.066 13.76 8.818 14.004C8.574 14.248 8.272 14.44 7.912 14.58C7.556 14.72 7.15 14.79 6.694 14.79C6.134 14.79 5.626 14.69 5.17 14.49C4.714 14.286 4.324 14.012 4 13.668L4.336 13.116C4.368 13.072 4.406 13.036 4.45 13.008C4.498 12.976 4.55 12.96 4.606 12.96C4.658 12.96 4.716 12.982 4.78 13.026C4.848 13.066 4.924 13.118 5.008 13.182C5.092 13.246 5.188 13.316 5.296 13.392C5.404 13.468 5.526 13.538 5.662 13.602C5.802 13.666 5.96 13.72 6.136 13.764C6.312 13.804 6.51 13.824 6.73 13.824C7.006 13.824 7.252 13.786 7.468 13.71C7.684 13.634 7.866 13.528 8.014 13.392C8.166 13.252 8.282 13.086 8.362 12.894C8.442 12.702 8.482 12.488 8.482 12.252C8.482 11.992 8.422 11.78 8.302 11.616C8.186 11.448 8.032 11.308 7.84 11.196C7.648 11.084 7.428 10.99 7.18 10.914C6.932 10.834 6.68 10.754 6.424 10.674C6.168 10.59 5.916 10.494 5.668 10.386C5.42 10.278 5.2 10.138 5.008 9.966C4.816 9.794 4.66 9.58 4.54 9.324C4.424 9.064 4.366 8.744 4.366 8.364C4.366 8.06 4.424 7.766 4.54 7.482C4.66 7.198 4.832 6.946 5.056 6.726C5.284 6.506 5.562 6.33 5.89 6.198C6.222 6.066 6.602 6 7.03 6C7.51 6 7.946 6.076 8.338 6.228C8.734 6.38 9.082 6.6 9.382 6.888L9.1 7.44Z" fill="black"/>
</svg>
