<svg width="20" height="20" viewBox="0 0 20 20" fill="none" xmlns="http://www.w3.org/2000/svg">
<circle cx="10" cy="10" r="10" fill="#98FF98"/>
<path d="M14.052 6.40198L10.548 15H9.504L6 6.40198H6.93C7.034 6.40198 7.118 6.42798 7.182 6.47998C7.246 6.53198 7.294 6.59798 7.326 6.67798L9.75 12.744C9.802 12.88 9.852 13.028 9.9 13.188C9.952 13.348 9.998 13.516 10.038 13.692C10.078 13.516 10.12 13.348 10.164 13.188C10.208 13.028 10.256 12.88 10.308 12.744L12.726 6.67798C12.75 6.60998 12.796 6.54798 12.864 6.49198C12.936 6.43198 13.022 6.40198 13.122 6.40198H14.052Z" fill="black"/>
</svg>
