<svg width="20" height="20" viewBox="0 0 20 20" fill="none" xmlns="http://www.w3.org/2000/svg">
<path d="M20 10C20 15.5228 15.5228 20 10 20C4.47715 20 0 15.5228 0 10C0 4.47715 4.47715 0 10 0C15.5228 0 20 4.47715 20 10Z" fill="#77DD77"/>
<path d="M17.033 7.37998H14.249V15H13.091V7.37998H10.301V6.40198H17.033V7.37998Z" fill="black"/>
<path d="M10.088 6.40198L6.58401 15H5.54001L2.03601 6.40198H2.96601C3.07001 6.40198 3.15401 6.42798 3.21801 6.47998C3.28201 6.53198 3.33001 6.59798 3.36201 6.67798L5.78601 12.744C5.83801 12.88 5.88801 13.028 5.93601 13.188C5.98801 13.348 6.03401 13.516 6.07401 13.692C6.11401 13.516 6.15601 13.348 6.20001 13.188C6.24401 13.028 6.29201 12.88 6.34401 12.744L8.76201 6.67798C8.78601 6.60998 8.83201 6.54798 8.90001 6.49198C8.97201 6.43198 9.05801 6.40198 9.15801 6.40198H10.088Z" fill="black"/>
</svg>
