<?xml version="1.0" encoding="UTF-8"?>
<svg id="Layer_2" data-name="Layer 2" xmlns="http://www.w3.org/2000/svg" viewBox="0 0 215.15 60">
  <defs>
    <style>
      .cls-1 {
        stroke-width: .97px;
      }

      .cls-1, .cls-2, .cls-3, .cls-4 {
        fill: none;
        stroke: #000;
        stroke-linecap: round;
        stroke-linejoin: round;
      }

      .cls-2 {
        stroke-width: .97px;
      }

      .cls-3 {
        stroke-width: .97px;
      }

      .cls-4 {
        stroke-width: .97px;
      }
    </style>
  </defs>
  <g id="Layer_1-2" data-name="Layer 1">
    <g>
      <path d="M8.24,28.46c0,15.46,5.16,24.9,15.47,24.9,7.59,0,11.75-3.88,13.89-13.88h2.51l-.5,16.89h-2.36c-.5-1.03-.79-1.82-1.86-1.82-1.36,0-6.02,2.7-12.25,2.7C9.17,57.25,0,48.76,0,28.54,0,9.75,10.24,0,23.42,0c5.59,0,9.88,2.38,11.46,2.38,1.07,0,1.36-.63,1.86-1.66h2.22l.5,16.57h-2.51c-2.08-10.15-6.23-13.4-13.54-13.4-9.67,0-15.18,7.61-15.18,24.58Z"/>
      <path d="M47.16,38.66c0,2.97.77,4.6,4.1,4.6s5.86-1.98,5.86-6.08v-11.62l-3.06-.32v-1.76l7.34-.27v20.45l2.93.32v1.8h-6.53l-.23-3.83h-.18c-1.26,2.21-3.69,4.32-7.57,4.32-4.78,0-6.94-2.39-6.94-7.66v-13.06l-2.97-.32v-1.76l7.25-.27v15.45Z"/>
      <path d="M74.55,11.99v31.67l3.42.32v1.8h-10.9v-1.8l3.2-.32V14.33l-3.2-.32v-1.76l7.48-.27Z"/>
      <polygon points="88.11 23.21 88.11 43.66 91.54 43.98 91.54 45.78 80.45 45.78 80.45 43.98 83.83 43.66 83.83 25.55 80.45 25.23 80.45 23.48 88.11 23.21"/>
      <path d="M100.86,23.16l.32,4.28h.14c1.26-2.21,3.78-4.55,7.88-4.55,4.78,0,6.85,2.39,6.85,7.66v13.11l2.97.32v1.8h-10.23v-1.8l2.97-.32v-13.06c0-2.97-.68-4.69-4.14-4.69-3.2,0-5.99,2.07-5.99,5.72v12.03l3.06.32v1.8h-10.27v-1.8l2.93-.32v-18.11l-2.93-.32v-1.76l6.44-.32Z"/>
      <path d="M128.38,23.16l.32,4.28h.14c1.26-2.21,3.78-4.55,7.88-4.55,4.78,0,6.85,2.39,6.85,7.66v13.11l2.97.32v1.8h-10.23v-1.8l2.97-.32v-13.06c0-2.97-.68-4.69-4.14-4.69-3.2,0-5.99,2.07-5.99,5.72v12.03l3.06.32v1.8h-10.27v-1.8l2.93-.32v-18.11l-2.93-.32v-1.76l6.44-.32Z"/>
      <path d="M162.39,33.97v-3.06c0-3.92-.95-6.13-4.51-6.13-1.35,0-3.78.18-3.78,1.89,0,.18.04.36.09.59h1.49c.13.54.27,1.13.27,1.62,0,1.53-1.08,2.39-2.57,2.39-1.62,0-2.61-.99-2.61-2.79,0-3.29,3.33-5.59,7.79-5.59,5.63,0,8.11,2.21,8.11,8.51v10.27c0,1.94.32,2.52,1.4,2.52.5,0,.95-.09,1.49-.27l.41,1.53c-.77.41-1.94.77-3.29.77-2.34,0-3.69-.86-4.05-3.2-1.4,2.07-3.83,3.24-6.62,3.24-3.47,0-6.31-1.53-6.31-5.77,0-4.91,4.01-6.53,9.6-6.53h3.11ZM162.39,39.61v-3.74h-2.52c-4.1,0-5.45,1.71-5.45,4.37,0,2.25.81,3.56,3.2,3.56,2.25,0,4.78-1.44,4.78-4.19Z"/>
      <path d="M184.28,43.98v1.8h-12.07v-1.8l2.93-.32v-18.11l-2.93-.32v-1.76l6.49-.27.32,3.92h.18c1.31-2.34,3.15-4.24,6.49-4.24,2.48,0,4.6,1.49,4.6,4.19,0,2.43-1.26,3.51-3.15,3.51s-2.93-1.13-2.88-3.06l1.44-.59c.04-.18.09-.36.09-.54,0-.81-.68-1.08-1.49-1.08-2.39,0-4.87,3.11-4.87,5.72v12.61l4.87.32Z"/>
      <polygon points="200.05 23.21 200.05 43.66 203.47 43.98 203.47 45.78 192.39 45.78 192.39 43.98 195.77 43.66 195.77 25.55 192.39 25.23 192.39 23.48 200.05 23.21"/>
      <path d="M207.18,43.26c.79,0,1.37.41,1.37,1.33,0,.81-.47,1.37-1.35,1.37-1.03,0-1.37-.69-1.37-1.35,0-.75.47-1.35,1.35-1.35Z"/>
      <path d="M85.05,15.11c1.26,0,2.2.95,2.2,3.08,0,1.87-.75,3.17-2.17,3.17-1.65,0-2.19-1.61-2.19-3.13,0-1.74.75-3.13,2.16-3.13Z"/>
      <g>
        <path d="M112.32,50.28c-.05.19-.09.34-.12.45-.03.11-.06.24-.1.38-.03.16-.06.3-.08.43-.02.12-.04.28-.08.48h-.07v-.11s0-.07,0-.09c0-.03,0-.06,0-.08,0-.21-.03-.42-.08-.61-.06-.19-.14-.37-.25-.52s-.25-.27-.41-.36c-.16-.09-.35-.14-.57-.14-.41,0-.72.13-.93.39-.21.26-.32.58-.32.97,0,.18.04.36.12.53s.18.33.31.49c.12.16.26.31.4.45.14.14.28.28.4.4.15.16.3.32.44.47.14.16.27.32.37.49s.19.35.25.53c.06.18.09.37.09.58,0,.33-.06.61-.19.84-.12.24-.29.43-.5.58-.21.15-.45.26-.71.33s-.54.11-.82.11c-.32,0-.63-.07-.93-.21-.3-.14-.58-.32-.85-.54l-.34.42h-.04c.03-.18.07-.34.11-.47.04-.14.07-.28.1-.42.01-.09.03-.17.04-.25.01-.08.02-.15.03-.23.01-.08.02-.16.03-.25.01-.09.03-.19.05-.3h.07s0,.03,0,.08c0,.05,0,.09,0,.12,0,.23.04.46.11.69.08.23.19.45.33.64s.33.35.54.47c.21.12.46.18.75.18.19,0,.37-.04.53-.13s.3-.2.41-.34.2-.31.26-.49c.06-.19.09-.39.09-.6,0-.19-.03-.37-.1-.54-.07-.17-.16-.32-.27-.47s-.23-.3-.36-.44c-.13-.14-.26-.28-.4-.42-.13-.14-.27-.29-.41-.44-.14-.16-.27-.32-.39-.49-.12-.17-.21-.35-.29-.54s-.11-.38-.11-.57c0-.28.06-.52.18-.73.12-.21.28-.39.48-.53.2-.14.42-.25.67-.32.25-.07.5-.1.76-.1.28,0,.54.06.8.18.25.12.47.25.65.41l.3-.33h.04Z"/>
        <path d="M113.51,50.24c.16,0,.32,0,.47-.01s.31-.02.47-.03c.26-.02.51-.05.76-.09l-1.29,4.14c.1-.21.22-.42.35-.62.13-.21.27-.4.41-.56.15-.17.3-.3.46-.41.16-.1.33-.16.5-.16.59,0,.88.31.88.94,0,.2-.03.41-.09.62-.06.21-.12.41-.19.59-.06.16-.13.33-.21.51-.08.18-.15.37-.22.55-.07.18-.13.36-.18.52s-.07.31-.07.43c0,.03,0,.07,0,.12s.01.09.03.13c.02.04.04.08.08.11.03.03.09.05.16.05.09,0,.19-.04.29-.12.1-.08.2-.18.3-.3.1-.12.19-.25.27-.39s.15-.27.2-.39l.03.02c-.05.11-.11.24-.2.4-.08.16-.18.31-.29.45-.11.14-.24.26-.38.36-.14.1-.3.15-.46.15-.24,0-.41-.08-.53-.25-.11-.17-.17-.36-.17-.58,0-.1,0-.2.03-.31.02-.11.05-.22.09-.34.09-.26.17-.48.24-.66.07-.18.13-.34.19-.48.06-.15.11-.29.17-.44.06-.15.12-.32.19-.53.03-.09.06-.2.09-.32.02-.12.04-.22.04-.29,0-.12-.03-.22-.08-.31s-.16-.14-.3-.14c-.18,0-.36.08-.55.25-.18.17-.36.37-.52.62-.16.25-.31.51-.44.78-.13.28-.23.52-.3.75l-.68,2.13h-.77l1.9-6.2s.03-.08.04-.13.02-.1.02-.16c0-.17-.07-.27-.21-.31-.14-.04-.31-.06-.52-.06v-.04Z"/>
        <path d="M121.83,55.88c-.06.15-.13.3-.21.46-.08.16-.16.31-.27.44-.1.14-.22.25-.35.33-.13.09-.28.13-.45.13-.13,0-.23-.02-.31-.07-.08-.04-.14-.11-.19-.18-.05-.08-.08-.16-.1-.25s-.03-.18-.03-.28c0-.13.01-.26.03-.39-.06.1-.14.22-.22.36-.08.14-.18.26-.3.38-.11.12-.25.22-.4.3s-.33.12-.52.12c-.31,0-.58-.11-.81-.32-.23-.21-.34-.55-.34-1.02,0-.19.02-.39.07-.61.05-.22.13-.46.24-.72.1-.24.24-.49.42-.73.17-.25.37-.47.59-.67.22-.2.46-.36.72-.48.26-.13.54-.19.83-.19.38,0,.6.21.67.65l.16-.5h.7l-.79,2.4c-.1.33-.19.62-.25.89s-.09.49-.09.66c0,.03,0,.08,0,.13,0,.05.01.1.03.16.01.05.04.1.07.14.03.04.07.06.13.06.08,0,.17-.04.26-.13s.18-.19.26-.31c.08-.12.16-.25.23-.39.07-.14.13-.27.17-.38l.04.02ZM120.82,53.11c0-.19-.05-.34-.15-.43-.1-.09-.23-.14-.39-.14-.15,0-.3.07-.47.2-.17.13-.34.31-.5.52-.16.22-.32.46-.47.72-.15.27-.28.54-.4.81-.11.27-.2.54-.27.79-.07.25-.1.47-.1.65,0,.1,0,.21.03.32.02.11.05.21.09.3.04.09.1.17.17.22s.17.09.29.09c.15,0,.28-.04.42-.11.13-.07.25-.17.36-.28.11-.12.2-.24.29-.38s.16-.27.21-.39c.14-.31.28-.68.42-1.1.14-.42.27-.84.38-1.25.02-.08.04-.16.06-.26.02-.1.03-.19.03-.29Z"/>
        <path d="M125.45,52.67c-.08,0-.18.03-.28.09-.1.06-.2.16-.31.3-.14.18-.26.38-.35.61-.1.22-.17.41-.23.55-.14.39-.27.82-.41,1.26-.13.45-.26.89-.4,1.34l-.09.31h-.78l.5-1.54c.02-.06.06-.17.11-.33.05-.17.11-.36.16-.59.06-.23.1-.46.15-.71.04-.25.06-.49.06-.71,0-.16-.02-.3-.06-.41-.04-.12-.1-.17-.19-.17s-.17.04-.25.11c-.09.07-.17.17-.26.29-.09.12-.17.26-.26.4-.08.15-.16.29-.23.44l-.03-.02c.08-.15.16-.31.24-.48.09-.17.18-.32.29-.45.1-.14.22-.25.34-.34.12-.09.25-.14.4-.14.13,0,.24.03.33.08s.16.13.21.22c.05.09.09.2.11.33s.03.26.03.4c0,.12,0,.24-.02.35-.01.12-.03.24-.05.35.06-.16.14-.34.23-.54.09-.2.2-.39.32-.57s.26-.33.41-.45.32-.18.51-.18c.13,0,.24.04.33.13.09.09.14.19.14.32,0,.08-.03.16-.08.22-.05.06-.13.09-.22.09-.12,0-.2-.05-.26-.16-.05-.1-.07-.2-.07-.29,0-.09-.01-.14-.05-.14Z"/>
        <path d="M126.05,55.04c.07-.23.18-.49.34-.79s.35-.57.57-.83c.22-.26.47-.48.74-.66.27-.18.55-.27.84-.27.11,0,.22.01.32.04.1.02.19.06.27.12.08.06.14.13.19.22.05.09.07.2.07.33,0,.14-.03.28-.09.42-.06.14-.14.27-.23.4-.1.12-.21.24-.33.35s-.24.2-.36.27c-.23.15-.47.27-.73.38s-.55.22-.88.34c-.04.13-.08.27-.1.43-.03.15-.04.32-.04.49,0,.1,0,.19.03.29.02.1.05.19.09.27.04.08.11.15.18.2.08.05.17.08.29.08.15,0,.29-.04.45-.12.15-.08.3-.18.44-.3.14-.12.27-.25.4-.39.12-.14.22-.27.3-.39l.03.02c-.07.11-.16.24-.29.39-.12.15-.26.29-.42.42-.16.13-.33.24-.51.34s-.38.14-.59.14c-.31,0-.58-.11-.8-.34s-.33-.56-.33-.99c0-.12.01-.26.03-.4.02-.14.06-.29.1-.45ZM126.8,55.27c.24-.09.47-.18.68-.28.21-.09.42-.22.62-.37.2-.15.37-.35.5-.6.14-.25.2-.53.2-.85,0-.06,0-.12-.02-.19-.01-.07-.04-.14-.07-.2-.03-.06-.07-.12-.13-.16-.05-.05-.12-.07-.19-.07-.11,0-.22.05-.33.16-.11.1-.22.24-.33.41-.11.17-.21.35-.31.56s-.19.41-.27.61-.16.39-.22.56c-.06.17-.11.31-.15.42Z"/>
        <path d="M135.23,52.67c-.08,0-.18.03-.28.09-.1.06-.2.16-.31.3-.14.18-.26.38-.35.61-.1.22-.17.41-.23.55-.14.39-.27.82-.41,1.26-.13.45-.26.89-.4,1.34l-.09.31h-.78l.5-1.54c.02-.06.06-.17.11-.33.05-.17.11-.36.16-.59.06-.23.1-.46.15-.71.04-.25.06-.49.06-.71,0-.16-.02-.3-.06-.41-.04-.12-.1-.17-.19-.17s-.17.04-.25.11c-.09.07-.17.17-.26.29-.09.12-.17.26-.26.4-.08.15-.16.29-.23.44l-.03-.02c.08-.15.16-.31.24-.48.09-.17.18-.32.29-.45.1-.14.22-.25.34-.34.12-.09.25-.14.4-.14.13,0,.24.03.33.08s.16.13.21.22c.05.09.09.2.11.33s.03.26.03.4c0,.12,0,.24-.02.35-.01.12-.03.24-.05.35.06-.16.14-.34.23-.54.09-.2.2-.39.32-.57s.26-.33.41-.45.32-.18.51-.18c.13,0,.24.04.33.13.09.09.14.19.14.32,0,.08-.03.16-.08.22-.05.06-.13.09-.22.09-.12,0-.2-.05-.26-.16-.05-.1-.07-.2-.07-.29,0-.09-.01-.14-.05-.14Z"/>
        <path d="M135.83,55.04c.07-.23.18-.49.34-.79s.35-.57.57-.83c.22-.26.47-.48.74-.66.27-.18.55-.27.84-.27.11,0,.22.01.32.04.1.02.19.06.27.12.08.06.14.13.19.22.05.09.07.2.07.33,0,.14-.03.28-.09.42-.06.14-.14.27-.23.4-.1.12-.21.24-.33.35s-.24.2-.36.27c-.23.15-.47.27-.73.38s-.55.22-.88.34c-.04.13-.08.27-.1.43-.03.15-.04.32-.04.49,0,.1,0,.19.03.29.02.1.05.19.09.27.04.08.11.15.18.2.08.05.17.08.29.08.15,0,.29-.04.45-.12.15-.08.3-.18.44-.3.14-.12.27-.25.4-.39.12-.14.22-.27.3-.39l.03.02c-.07.11-.16.24-.29.39-.12.15-.26.29-.42.42-.16.13-.33.24-.51.34s-.38.14-.59.14c-.31,0-.58-.11-.8-.34s-.33-.56-.33-.99c0-.12.01-.26.03-.4.02-.14.06-.29.1-.45ZM136.58,55.27c.24-.09.47-.18.68-.28.21-.09.42-.22.62-.37.2-.15.37-.35.5-.6.14-.25.2-.53.2-.85,0-.06,0-.12-.02-.19-.01-.07-.04-.14-.07-.2-.03-.06-.07-.12-.13-.16-.05-.05-.12-.07-.19-.07-.11,0-.22.05-.33.16-.11.1-.22.24-.33.41-.11.17-.21.35-.31.56s-.19.41-.27.61-.16.39-.22.56c-.06.17-.11.31-.15.42Z"/>
        <path d="M142.32,52.71c0-.1-.07-.15-.2-.15-.19,0-.38.09-.55.27s-.32.39-.46.64-.26.51-.36.79-.18.51-.24.7c-.04.16-.09.35-.13.56-.05.21-.07.42-.07.62,0,.12.01.25.03.36.02.12.06.22.11.32.05.09.12.17.22.22.09.06.21.08.35.08.15,0,.3-.04.45-.12.15-.08.28-.19.41-.31.12-.13.24-.27.34-.43.1-.16.19-.31.25-.46l.04.02c-.06.11-.13.25-.22.41s-.2.32-.34.47c-.14.15-.29.28-.47.38-.18.1-.39.16-.61.16-.17,0-.33-.03-.49-.1-.16-.07-.3-.16-.42-.29-.12-.13-.22-.28-.3-.46-.08-.18-.11-.4-.11-.64,0-.21.03-.43.09-.68.07-.28.18-.57.34-.87.16-.31.35-.58.57-.83.22-.25.47-.46.75-.62.28-.16.57-.24.88-.24.08,0,.17,0,.26.03.09.02.17.05.24.08s.13.09.17.15c.04.06.07.14.07.23,0,.12-.03.21-.09.27-.06.06-.14.09-.22.09-.1,0-.18-.03-.24-.1-.06-.06-.08-.15-.08-.25v-.09s0-.07.01-.09.01-.06.02-.09Z"/>
        <path d="M143.24,53.76c.07-.13.15-.27.23-.42.09-.15.18-.29.29-.41.11-.13.22-.23.34-.31.12-.08.25-.12.39-.12.24,0,.4.08.48.23.09.16.13.33.13.52,0,.2-.04.41-.11.62-.12.35-.26.71-.41,1.06-.16.35-.3.7-.44,1.06-.05.12-.1.25-.14.38-.05.14-.07.27-.07.39,0,.08.02.15.05.23.03.08.1.11.2.11.09,0,.18-.04.28-.12s.19-.19.29-.31.18-.25.27-.4c.08-.14.15-.27.21-.39l.03.02c-.06.12-.12.26-.2.41-.08.16-.18.3-.29.44s-.23.25-.36.35c-.13.09-.28.14-.44.14-.23,0-.4-.08-.5-.23-.11-.15-.16-.33-.16-.52,0-.16.03-.34.09-.55.13-.41.28-.8.47-1.18.19-.38.37-.8.55-1.27.02-.06.04-.14.07-.23.02-.09.04-.18.04-.26,0-.1-.01-.18-.04-.25-.03-.07-.09-.1-.19-.1-.08,0-.17.04-.27.11-.09.08-.19.17-.28.29-.09.11-.18.24-.26.37s-.15.26-.21.37l-.03-.02ZM145.25,50.69c.14,0,.25.05.35.14.09.09.14.21.14.35,0,.12-.05.23-.14.33-.09.1-.21.15-.35.15s-.26-.05-.35-.15c-.09-.1-.14-.21-.14-.33,0-.14.05-.26.14-.35.09-.09.21-.14.35-.14Z"/>
        <path d="M147.75,50.97l.71.1-.7,2.59c.22-.4.45-.69.68-.88.23-.19.49-.29.78-.29.19,0,.36.04.5.12s.26.19.35.32c.09.13.16.28.2.46.04.17.06.36.06.55,0,.14-.01.28-.03.43-.02.15-.06.31-.11.49-.08.27-.19.54-.33.82s-.32.53-.53.76c-.2.23-.43.42-.69.56s-.52.22-.81.22c-.2,0-.38-.06-.53-.17s-.26-.26-.31-.44l-.68,2.59c-.03.12-.05.22-.05.31,0,.18.06.3.19.35.12.05.28.08.47.08v.04c-.18,0-.31,0-.41,0-.1,0-.18,0-.24-.01-.07,0-.13,0-.19-.01-.06,0-.13,0-.21,0-.09,0-.17,0-.24,0-.07,0-.15,0-.23.01s-.17,0-.27.01c-.1,0-.22,0-.37,0v-.04c.15,0,.26-.02.35-.05s.16-.08.22-.14c.06-.06.1-.14.14-.24.04-.1.08-.22.12-.37.23-.87.42-1.63.59-2.25s.3-1.16.42-1.59c.11-.43.2-.78.27-1.05.07-.26.12-.47.16-.62.04-.15.06-.25.08-.32.01-.06.02-.11.03-.15-.25.19-.49.38-.71.57-.22.18-.4.41-.52.69l-.04-.02c.1-.23.23-.42.37-.57s.29-.29.43-.41c.14-.13.27-.25.39-.37.12-.13.2-.28.24-.46l.46-1.64ZM147.11,56.22c-.02.08-.03.16-.03.25,0,.18.06.34.19.48.13.14.3.21.53.21.15,0,.29-.07.44-.21.15-.14.29-.32.43-.54.14-.22.26-.46.38-.74.12-.27.22-.54.31-.81s.16-.53.21-.77c.05-.24.08-.44.08-.6,0-.08,0-.18-.02-.29-.01-.11-.03-.21-.07-.31s-.09-.17-.16-.24c-.07-.07-.16-.1-.28-.1-.17,0-.33.05-.48.15-.15.1-.29.22-.41.38-.12.15-.23.32-.33.51-.09.19-.17.37-.23.55-.04.13-.09.29-.14.47-.05.18-.1.37-.15.56s-.1.38-.15.57c-.05.18-.09.34-.11.47Z"/>
        <path d="M150.98,55.04c.07-.23.18-.49.34-.79s.35-.57.57-.83c.22-.26.47-.48.74-.66.27-.18.55-.27.84-.27.11,0,.22.01.32.04.1.02.19.06.27.12.08.06.14.13.19.22.05.09.07.2.07.33,0,.14-.03.28-.09.42-.06.14-.14.27-.23.4-.1.12-.21.24-.33.35s-.24.2-.36.27c-.23.15-.47.27-.73.38s-.55.22-.88.34c-.04.13-.08.27-.1.43-.03.15-.04.32-.04.49,0,.1,0,.19.03.29.02.1.05.19.09.27.04.08.11.15.18.2.08.05.17.08.29.08.15,0,.29-.04.45-.12.15-.08.3-.18.44-.3.14-.12.27-.25.4-.39.12-.14.22-.27.3-.39l.03.02c-.07.11-.16.24-.29.39-.12.15-.26.29-.42.42-.16.13-.33.24-.51.34s-.38.14-.59.14c-.31,0-.58-.11-.8-.34s-.33-.56-.33-.99c0-.12.01-.26.03-.4.02-.14.06-.29.1-.45ZM151.73,55.27c.24-.09.47-.18.68-.28.21-.09.42-.22.62-.37.2-.15.37-.35.5-.6.14-.25.2-.53.2-.85,0-.06,0-.12-.02-.19-.01-.07-.04-.14-.07-.2-.03-.06-.07-.12-.13-.16-.05-.05-.12-.07-.19-.07-.11,0-.22.05-.33.16-.11.1-.22.24-.33.41-.11.17-.21.35-.31.56s-.19.41-.27.61-.16.39-.22.56c-.06.17-.11.31-.15.42Z"/>
        <path d="M154.8,56.78c0,.14.07.24.22.32.15.08.33.11.54.11.12,0,.23-.02.35-.05.11-.03.22-.09.31-.17.09-.08.17-.17.23-.3.06-.12.09-.27.09-.45,0-.13-.02-.25-.07-.36-.05-.11-.11-.22-.18-.33-.08-.11-.16-.23-.26-.35-.1-.12-.2-.26-.31-.41-.12-.16-.23-.33-.33-.5-.1-.17-.15-.36-.15-.57,0-.19.04-.36.11-.51s.17-.28.3-.39c.13-.11.28-.19.46-.25s.37-.09.57-.09c.08,0,.18.01.29.03s.22.06.32.1c.1.05.19.11.26.19.07.08.1.17.1.28,0,.06-.02.13-.06.2s-.11.11-.21.11c-.08,0-.14-.02-.19-.07-.05-.04-.08-.12-.08-.21,0-.08.01-.15.04-.2s.04-.08.04-.1c0-.1-.05-.17-.15-.21-.1-.04-.21-.07-.34-.07-.1,0-.2.02-.3.05s-.19.08-.27.15-.14.15-.19.25c-.05.1-.07.22-.07.36,0,.12.02.23.07.34.04.11.1.22.17.32.07.1.15.21.23.31.08.1.16.2.23.29.07.09.14.18.21.27s.14.19.2.29c.06.1.11.21.15.32.04.11.06.23.06.36,0,.44-.15.78-.44,1.04s-.68.38-1.16.38c-.1,0-.23-.01-.36-.03-.14-.02-.27-.06-.4-.11-.12-.06-.23-.13-.31-.22s-.13-.21-.13-.36c0-.1.03-.19.09-.27.06-.08.14-.13.24-.13.07,0,.13.02.19.07s.08.11.08.19c0,.12-.03.2-.09.26-.06.05-.09.09-.09.11Z"/>
        <path d="M158.33,56.71c0-.15.05-.27.16-.37s.22-.16.36-.16c.15,0,.27.05.37.16s.16.23.16.37-.05.26-.16.36-.23.16-.37.16-.26-.05-.36-.16-.16-.23-.16-.36Z"/>
        <path d="M165.06,51.02c.01-.06.03-.12.04-.19.01-.07.02-.13.02-.18,0-.1-.02-.18-.06-.24-.04-.06-.1-.1-.16-.13-.07-.03-.14-.05-.23-.06-.09,0-.17-.01-.25-.01v-.04h.38c.1,0,.19,0,.28,0,.08,0,.16,0,.24,0h.27c.26,0,.51,0,.76-.02s.51-.02.76-.02c.31,0,.6,0,.86.02.26.01.55.02.86.03l.21,1.48h-.04c-.06-.19-.12-.37-.2-.54-.08-.18-.18-.33-.31-.47-.13-.13-.29-.24-.48-.33-.19-.08-.42-.12-.69-.12-.18,0-.38,0-.59.02-.21.01-.38.03-.52.07l-.8,3.09h.68c.17,0,.33-.01.47-.03.14-.02.26-.07.37-.14.11-.07.2-.18.27-.31s.13-.32.17-.55h.04c-.03.15-.05.27-.08.37-.02.1-.05.2-.07.28-.02.08-.04.16-.06.24-.02.08-.04.17-.06.28-.02.11-.04.2-.05.28-.01.08-.02.15-.03.23s-.02.17-.03.27c-.01.1-.03.22-.06.37h-.04c.01-.07.02-.13.03-.18,0-.05,0-.11,0-.18,0-.24-.07-.45-.21-.62-.14-.17-.36-.25-.66-.25h-.71l-.61,2.35c-.03.1-.05.2-.07.3-.02.1-.03.2-.03.3,0,.17.04.31.13.41s.2.17.33.21c.14.04.29.07.46.08s.33.01.49.01c.33,0,.62-.04.85-.11.24-.08.44-.19.61-.33.17-.14.32-.32.45-.52s.25-.43.38-.68h.04l-.48,1.68c-.31.01-.62.02-.93.03-.32,0-.65,0-1.01,0-.21,0-.4,0-.55-.01s-.3-.01-.44-.02c-.14,0-.29,0-.45-.02-.16,0-.34-.01-.55-.01-.14,0-.26,0-.36,0-.1,0-.2,0-.3,0s-.2,0-.32,0c-.11,0-.25,0-.4,0v-.04c.32,0,.54-.06.69-.17.15-.11.26-.32.34-.63l1.39-5.28Z"/>
        <path d="M170.32,53.19s0-.08,0-.14c0-.06-.02-.11-.04-.17-.02-.06-.05-.1-.09-.15s-.09-.06-.16-.06c-.09,0-.18.04-.28.12-.09.08-.19.19-.28.31-.09.13-.18.27-.27.42-.08.16-.16.31-.22.46l-.04-.02c.07-.15.15-.32.24-.49.09-.17.19-.33.3-.48.11-.15.24-.27.37-.36.14-.09.29-.14.46-.14.14,0,.25.03.34.08.09.05.16.12.21.2.05.08.09.18.1.29.02.11.03.21.03.32,0,.12-.01.26-.04.44-.03.17-.06.32-.09.44.09-.17.2-.36.32-.57.12-.2.26-.4.42-.57s.32-.32.5-.44c.18-.12.37-.18.58-.18.29,0,.5.09.63.26.13.18.2.4.2.68,0,.08,0,.15-.03.23s-.04.15-.06.22c-.11.37-.25.75-.43,1.13s-.32.77-.44,1.16c-.02.08-.04.16-.07.24-.02.09-.04.17-.04.24,0,.06.01.14.04.24s.1.14.22.14c.09,0,.19-.04.29-.12.1-.08.19-.18.28-.3.09-.12.17-.25.24-.39.08-.14.14-.27.2-.38l.04.02c-.06.12-.12.27-.2.42-.08.16-.17.3-.28.44s-.22.25-.35.35c-.13.09-.27.14-.42.14-.24,0-.42-.06-.54-.19-.12-.13-.18-.3-.18-.52,0-.08,0-.16.03-.25.02-.09.04-.18.07-.28.1-.36.24-.74.4-1.13.16-.39.31-.78.45-1.17.03-.08.05-.18.08-.29.02-.11.04-.2.04-.29,0-.14-.03-.26-.08-.36-.06-.1-.16-.15-.3-.15s-.29.06-.45.19c-.16.13-.32.3-.48.51-.16.21-.31.44-.45.7-.14.26-.25.51-.33.76-.08.24-.16.45-.22.64s-.12.37-.18.55c-.06.18-.12.36-.18.55-.06.19-.13.4-.2.64h-.78l.75-2.3c.1-.29.18-.59.26-.89.07-.3.11-.56.11-.76Z"/>
        <path d="M172.74,59.71c0,.05.03.1.09.13.06.03.14.05.24.05.13,0,.24-.05.34-.14.1-.09.2-.21.28-.36s.15-.31.21-.48.12-.35.17-.52l1.37-4.96s.03-.11.04-.18c.01-.07.02-.13.02-.19s-.01-.12-.03-.2c-.02-.08-.09-.12-.2-.12-.08,0-.16.04-.26.13-.1.09-.19.19-.29.32s-.19.26-.28.4-.16.27-.22.38l-.03-.02c.06-.09.13-.22.22-.39.09-.17.2-.33.32-.49.12-.16.27-.3.42-.42.16-.12.32-.18.5-.18s.31.05.39.16.12.27.12.48c0,.17-.03.36-.08.56l-1,3.67c-.07.25-.15.53-.24.83-.09.3-.21.58-.36.84s-.35.48-.58.66-.52.27-.86.27c-.08,0-.17,0-.27-.02-.09-.01-.18-.04-.26-.08-.08-.04-.14-.09-.19-.15-.05-.06-.07-.14-.07-.23,0-.1.03-.18.08-.24s.11-.09.2-.09c.1,0,.17.03.21.08.04.05.06.12.06.2s-.01.14-.04.19-.04.08-.04.1ZM176.17,50.69c.14,0,.25.05.35.14s.14.21.14.35c0,.12-.05.23-.14.33-.09.1-.21.15-.35.15s-.25-.05-.35-.15c-.09-.1-.14-.21-.14-.33,0-.14.05-.26.14-.35s.21-.14.35-.14Z"/>
        <path d="M179.37,52.5c.16,0,.32.04.47.12s.29.19.41.34c.12.15.21.33.29.54.07.21.11.45.11.71,0,.33-.06.67-.18,1.03-.12.36-.28.68-.5.98s-.47.54-.78.73c-.3.19-.63.29-.99.29-.26,0-.49-.05-.67-.14-.18-.09-.33-.22-.44-.37-.11-.15-.2-.32-.25-.52-.05-.19-.08-.38-.08-.58,0-.35.07-.7.21-1.07.14-.37.33-.7.57-1.01.24-.31.52-.56.83-.75s.65-.3,1-.3ZM179.32,52.56c-.17,0-.34.07-.5.2s-.31.31-.44.52c-.13.21-.25.45-.36.72s-.2.53-.28.8-.14.52-.18.76c-.04.24-.06.44-.06.6,0,.12.01.24.04.35.02.12.06.23.11.32.05.1.12.18.21.24.09.06.2.09.33.09.17,0,.34-.06.49-.18s.29-.28.42-.47c.13-.19.24-.42.33-.67.1-.25.18-.51.25-.77.07-.26.12-.52.16-.76.03-.25.05-.47.05-.67,0-.29-.05-.54-.14-.76-.09-.21-.24-.32-.45-.32Z"/>
        <path d="M180.99,54.17c0-.18,0-.37.02-.57.01-.2.04-.38.08-.55.04-.17.12-.3.22-.41.1-.11.24-.16.43-.16.17,0,.32.06.44.19.12.12.22.28.31.47.09.19.16.39.22.61.06.22.11.42.15.61.1.42.18.86.23,1.33.06.47.1.92.11,1.34.07-.12.14-.26.22-.41.08-.16.15-.32.22-.48.07-.17.14-.34.21-.51.07-.17.12-.34.16-.49.07-.23.12-.45.15-.68.03-.22.05-.43.05-.62,0-.08,0-.17-.02-.25-.01-.08-.03-.16-.05-.23,0-.03-.04-.05-.09-.08-.05-.02-.11-.06-.16-.1s-.11-.1-.16-.16c-.05-.07-.07-.15-.07-.26,0-.08.03-.15.08-.2.05-.05.12-.08.19-.08.12,0,.21.06.27.18.06.12.1.27.11.45,0,.05.01.1.01.15v.15c0,.67-.1,1.3-.3,1.89-.2.6-.45,1.18-.74,1.75-.15.28-.33.58-.55.92-.22.34-.46.65-.72.94s-.53.54-.82.73c-.28.2-.57.3-.86.3-.12,0-.22-.03-.29-.08s-.1-.13-.1-.23.04-.17.12-.22c.08-.05.17-.08.27-.08.13,0,.24.03.32.1.08.07.14.1.18.1.19,0,.37-.05.54-.14s.34-.23.5-.41c.13-.15.24-.28.33-.41.09-.13.16-.26.21-.39s.08-.28.1-.44c.02-.16.03-.34.03-.55s-.01-.45-.04-.74c-.03-.29-.07-.6-.12-.92-.05-.32-.11-.64-.19-.95-.07-.31-.15-.6-.23-.85-.08-.25-.17-.46-.26-.62-.09-.16-.18-.23-.27-.23-.11,0-.19.06-.25.17-.06.12-.1.25-.12.4s-.04.3-.04.44c0,.14,0,.24,0,.29h-.04Z"/>
        <path d="M190.07,52.86h-.82c-.21.77-.41,1.52-.6,2.26-.19.74-.4,1.51-.61,2.33-.07.26-.15.53-.26.83-.1.3-.23.57-.4.82-.16.25-.37.46-.61.62-.25.16-.55.24-.91.24-.08,0-.17,0-.26-.03-.09-.02-.17-.05-.24-.08s-.13-.09-.18-.15c-.05-.06-.07-.13-.07-.22,0-.08.02-.15.07-.23.05-.08.12-.12.23-.12.08,0,.15.02.2.07.05.05.08.12.08.22,0,.06-.01.12-.04.17-.02.05-.04.08-.04.1,0,.08.03.13.09.16.06.03.13.05.2.05.18,0,.34-.08.47-.23.14-.15.25-.34.36-.56.1-.22.19-.45.26-.69.07-.24.13-.45.18-.62l1.31-4.95h-.78l.02-.06h.78l.03-.14c.08-.31.18-.61.29-.92.11-.31.25-.58.43-.82.17-.24.38-.43.63-.58.25-.15.55-.22.9-.22.18,0,.34.04.48.12s.21.21.21.38c0,.09-.03.16-.08.22-.05.06-.12.09-.2.09s-.15-.03-.21-.08c-.06-.05-.08-.13-.08-.22,0-.07,0-.13.03-.17.02-.05.03-.08.03-.09,0-.07-.02-.12-.07-.14s-.1-.04-.17-.04c-.17,0-.31.05-.44.16-.12.11-.23.24-.33.4-.09.16-.17.33-.23.51-.06.18-.11.34-.16.49l-.29,1.06h.82l-.02.06Z"/>
        <path d="M192.52,52.5c.16,0,.32.04.47.12s.29.19.41.34c.12.15.21.33.29.54.07.21.11.45.11.71,0,.33-.06.67-.18,1.03-.12.36-.28.68-.5.98s-.47.54-.78.73c-.3.19-.63.29-.99.29-.26,0-.49-.05-.67-.14-.18-.09-.33-.22-.44-.37-.11-.15-.2-.32-.25-.52-.05-.19-.08-.38-.08-.58,0-.35.07-.7.21-1.07.14-.37.33-.7.57-1.01.24-.31.52-.56.83-.75s.65-.3,1-.3ZM192.47,52.56c-.17,0-.34.07-.5.2s-.31.31-.44.52c-.13.21-.25.45-.36.72s-.2.53-.28.8-.14.52-.18.76c-.04.24-.06.44-.06.6,0,.12.01.24.04.35.02.12.06.23.11.32.05.1.12.18.21.24.09.06.2.09.33.09.17,0,.34-.06.49-.18s.29-.28.42-.47c.13-.19.24-.42.33-.67.1-.25.18-.51.25-.77.07-.26.12-.52.16-.76.03-.25.05-.47.05-.67,0-.29-.05-.54-.14-.76-.09-.21-.24-.32-.45-.32Z"/>
        <path d="M196.93,52.5c.16,0,.32.04.47.12s.29.19.41.34c.12.15.21.33.29.54.07.21.11.45.11.71,0,.33-.06.67-.18,1.03-.12.36-.28.68-.5.98s-.47.54-.78.73c-.3.19-.63.29-.99.29-.26,0-.49-.05-.67-.14-.18-.09-.33-.22-.44-.37-.11-.15-.2-.32-.25-.52-.05-.19-.08-.38-.08-.58,0-.35.07-.7.21-1.07.14-.37.33-.7.57-1.01.24-.31.52-.56.83-.75s.65-.3,1-.3ZM196.87,52.56c-.17,0-.34.07-.5.2s-.31.31-.44.52c-.13.21-.25.45-.36.72s-.2.53-.28.8-.14.52-.18.76c-.04.24-.06.44-.06.6,0,.12.01.24.04.35.02.12.06.23.11.32.05.1.12.18.21.24.09.06.2.09.33.09.17,0,.34-.06.49-.18s.29-.28.42-.47c.13-.19.24-.42.33-.67.1-.25.18-.51.25-.77.07-.26.12-.52.16-.76.03-.25.05-.47.05-.67,0-.29-.05-.54-.14-.76-.09-.21-.24-.32-.45-.32Z"/>
        <path d="M202.13,50.2c.26,0,.53,0,.8-.03.27-.02.57-.05.88-.11l-1.76,5.84c-.03.1-.05.2-.07.31-.02.11-.03.21-.03.31,0,.03,0,.08,0,.14,0,.06.01.12.03.18.02.06.04.11.08.16.03.04.09.07.16.07.09,0,.18-.04.28-.13.1-.09.19-.19.27-.31.08-.12.16-.25.22-.39s.12-.26.15-.36l.04.02c-.03.08-.07.2-.14.35-.07.15-.15.3-.25.45-.1.15-.22.28-.36.39s-.3.17-.48.17c-.13,0-.24-.03-.32-.09-.08-.06-.14-.13-.19-.22-.05-.09-.07-.18-.09-.27-.01-.09-.02-.18-.02-.26,0-.19.02-.36.06-.53-.05.1-.11.23-.19.39-.08.16-.18.31-.3.45-.12.14-.26.27-.42.37-.16.1-.34.16-.54.16-.19,0-.36-.03-.52-.1-.16-.07-.29-.16-.4-.29-.11-.12-.19-.27-.25-.43-.06-.17-.09-.34-.09-.53,0-.2.03-.42.1-.67.07-.24.16-.49.29-.74s.27-.5.43-.73c.17-.24.35-.45.55-.64s.41-.34.64-.45c.22-.11.45-.17.68-.17.19,0,.35.05.46.14.11.09.2.25.26.46l.67-2.15s.03-.08.04-.13c.01-.05.02-.1.02-.16,0-.17-.07-.27-.21-.31s-.31-.06-.52-.06l.02-.08ZM201.96,53.7c.01-.06.03-.12.05-.2s.03-.16.03-.25c0-.18-.04-.34-.12-.49-.08-.14-.22-.21-.42-.21-.12,0-.25.05-.37.14-.13.09-.25.22-.37.37-.12.15-.24.33-.36.54-.11.21-.22.42-.32.63-.16.36-.3.72-.42,1.07-.12.35-.18.67-.18.97,0,.1,0,.21.03.32.02.11.05.21.09.29.04.09.1.16.18.21.08.05.17.08.29.08.14,0,.27-.04.4-.12.13-.08.24-.18.34-.3s.2-.25.28-.4.15-.28.2-.4c.15-.37.27-.73.36-1.09.1-.36.2-.75.32-1.17Z"/>
        <path d="M203.97,56.71c0-.15.05-.27.16-.37s.22-.16.36-.16c.15,0,.27.05.37.16s.16.23.16.37-.05.26-.16.36-.23.16-.37.16-.26-.05-.36-.16-.16-.23-.16-.36Z"/>
      </g>
      <path class="cls-3" d="M198.14,21.09h-2.52c-.89,0-1.35-.77-1.62-1.62l-1.25-3.97h10.77l-1.25,3.97c-.27.85-.73,1.62-1.62,1.62h-2.52Z"/>
      <path class="cls-1" d="M208.31,14.9l5.45-1.26c.4-.09.79.16.88.55.09.4-.16.79-.55.88l-5.45,1.26-.33-1.43h0Z"/>
      <path class="cls-4" d="M203.67,16.14c2.15,0,3.21-.35,4.81-.52"/>
      <path class="cls-2" d="M198.12,12.95v.38M196.34,12.33v.38M200.65,12.36v.38M197.2,9.53v.38M199.97,7.11v.38M195.86,7.11v.38M196.34,4.41v.38M199.06,9.45v.38M195.16,9.75v.38M198.06,6.41v.38M196.34,2.05v.38M193.7,6.14v.38M199.49,4.2v.38M198.25,2.42v.38"/>
    </g>
  </g>
</svg>