<svg width="20" height="20" viewBox="0 0 20 20" fill="none" xmlns="http://www.w3.org/2000/svg">
<circle cx="10" cy="10" r="10" fill="#FFFACD"/>
<path d="M9.538 10.458C9.87 10.458 10.162 10.414 10.414 10.326C10.67 10.238 10.884 10.116 11.056 9.96C11.232 9.8 11.364 9.61 11.452 9.39C11.54 9.17 11.584 8.928 11.584 8.664C11.584 8.116 11.414 7.688 11.074 7.38C10.738 7.072 10.226 6.918 9.538 6.918H8.158V10.458H9.538ZM9.538 6C10.082 6 10.554 6.064 10.954 6.192C11.358 6.316 11.692 6.494 11.956 6.726C12.22 6.958 12.416 7.238 12.544 7.566C12.676 7.894 12.742 8.26 12.742 8.664C12.742 9.064 12.672 9.43 12.532 9.762C12.392 10.094 12.186 10.38 11.914 10.62C11.646 10.86 11.312 11.048 10.912 11.184C10.516 11.316 10.058 11.382 9.538 11.382H8.158V14.598H7V6H9.538Z" fill="black"/>
</svg>
